<svg width="187" height="61" viewBox="0 0 187 61" fill="none" xmlns="http://www.w3.org/2000/svg">
<rect width="187" height="61" fill="#C3C3C3"/>
<rect x="-100" y="-1722" width="1920" height="2042.97" rx="32" fill="#FDFDFD"/>
<g clip-path="url(#clip0_253_10331)">
<path d="M44.2861 19.529L44.2861 19.5289C40.6855 15.9191 34.8479 15.9191 31.2474 19.5289L14.5192 36.3C10.9187 39.9098 10.9187 45.7625 14.5192 49.3723L14.5193 49.3723C18.1198 52.9821 23.9575 52.9821 27.558 49.3723L44.2861 32.6012C47.8867 28.9914 47.8867 23.1388 44.2861 19.529Z" fill="#F24E1E"/>
<path d="M54.9329 43.4845L54.9329 43.4845C58.5335 39.8747 58.5335 34.022 54.9329 30.4122L44.069 19.5204C40.4685 15.9106 34.6309 15.9106 31.0303 19.5204L31.0303 19.5205C27.4297 23.1303 27.4297 28.9829 31.0303 32.5927L41.8941 43.4845C45.4947 47.0943 51.3323 47.0943 54.9329 43.4845Z" fill="#DB4519"/>
<path d="M71.4806 13.8005L71.4805 13.8004C67.88 10.1906 62.0424 10.1906 58.4418 13.8004L41.8985 30.3862C38.298 33.996 38.298 39.8487 41.8985 43.4585L41.8986 43.4585C45.4991 47.0683 51.3368 47.0683 54.9373 43.4585L71.4806 26.8727C75.0811 23.2629 75.0811 17.4103 71.4806 13.8005Z" fill="#FF6B40"/>
<path d="M57.0707 28.2472L57.0706 28.2472C53.4701 24.6374 47.6325 24.6374 44.0319 28.2472L41.8986 30.386C38.2981 33.9958 38.2981 39.8484 41.8986 43.4582L41.8987 43.4582C45.4992 47.068 51.3368 47.068 54.9374 43.4582L57.0707 41.3195C60.6712 37.7097 60.6712 31.857 57.0707 28.2472Z" fill="#FF6B40"/>
<path d="M56.8964 40.0989C60.2436 36.7431 60.2436 31.3022 56.8964 27.9463C53.5492 24.5905 48.1222 24.5905 44.775 27.9463L42.1052 30.623C38.758 33.9788 38.758 39.4197 42.1052 42.7756C45.4524 46.1314 50.8794 46.1314 54.2266 42.7756L56.8964 40.0989Z" fill="url(#paint0_linear_253_10331)"/>
</g>
<path d="M92.3472 28.9956C90.5273 28.9956 88.9438 28.3575 87.833 27.1522C86.7695 25.9941 86.1786 24.3869 86.1786 22.5198C86.1786 20.7473 86.7695 19.1401 87.833 17.982C88.9438 16.753 90.5037 16.0676 92.229 16.0676C93.9543 16.0676 95.3487 16.6348 96.365 17.7693C97.3813 18.9274 97.9013 20.4163 97.9013 22.2835V23.2525H89.3456C89.5583 25.1433 90.74 26.2777 92.3708 26.2777C93.6943 26.2777 94.6633 25.6159 95.0415 24.4578L97.8304 25.4505C96.9559 27.6485 94.8997 28.9956 92.3472 28.9956ZM92.2054 18.7147C90.8582 18.7147 89.8419 19.5182 89.4638 21.0072H94.6161C94.5924 19.6128 93.6471 18.7147 92.2054 18.7147Z" fill="#F24E1E"/>
<path d="M98.7384 16.3039H100.393V12.7588H103.654V16.3039H106.183V19.0691H103.654V24.8123C103.654 25.6868 103.985 26.0177 105.214 26.0177C105.592 26.0177 105.781 26.0177 106.349 25.9468V28.6884C105.711 28.8065 105.002 28.8774 104.222 28.8774C101.504 28.8774 100.393 27.8611 100.393 25.4977V19.0691H98.7384V16.3039ZM108.325 28.7356V16.3039H111.634V18.0528C112.201 16.9184 113.453 16.233 114.942 16.233C115.155 16.233 115.368 16.2567 115.746 16.2803V19.5182C115.297 19.4473 115.037 19.4473 114.682 19.4473C112.863 19.4473 111.634 20.6054 111.634 22.4252V28.7356H108.325ZM120.7 28.9483C118.219 28.9483 116.47 27.4594 116.47 25.285C116.47 23.1343 117.911 21.858 120.96 21.3144L124.057 20.7235V20.5345C124.057 19.3764 123.442 18.8091 122.142 18.8091C120.937 18.8091 120.275 19.3291 119.991 20.4636L116.848 19.8727C117.486 17.5802 119.542 16.0676 122.26 16.0676C125.498 16.0676 127.294 17.5802 127.294 20.3927V25.4741C127.294 26.0413 127.507 26.2776 128.003 26.2776C128.098 26.2776 128.192 26.2776 128.311 26.254V28.7356C127.862 28.8065 127.46 28.8302 127.105 28.8302C125.734 28.8302 124.836 28.4047 124.387 27.5775C123.56 28.452 122.284 28.9483 120.7 28.9483ZM119.731 25.0959C119.731 25.9468 120.346 26.4431 121.362 26.4431C122.898 26.4431 124.057 25.5686 124.057 24.316V23.0397L121.622 23.5361C120.275 23.796 119.731 24.2687 119.731 25.0959ZM134.691 18.8328C132.894 18.8328 131.784 20.2509 131.784 22.5198C131.784 24.8123 132.894 26.2067 134.691 26.2067C135.943 26.2067 136.841 25.4032 137.196 23.9851L140.056 25.2614C139.748 26.3722 139.11 27.2703 138.141 27.9557C137.172 28.6411 136.014 28.9956 134.667 28.9956C132.871 28.9956 131.287 28.3575 130.176 27.1285C129.066 25.9704 128.498 24.3396 128.498 22.5198C128.498 20.6999 129.066 19.0691 130.176 17.9111C131.287 16.7057 132.871 16.0676 134.667 16.0676C137.314 16.0676 139.347 17.5329 140.008 19.7309L137.196 21.0544C136.841 19.6364 135.943 18.8328 134.691 18.8328ZM141.176 11.7661H144.485V21.1253L148.833 16.3039H152.804L148.242 21.0308L153.158 28.7356H149.377L145.95 23.4179L144.485 24.9305V28.7356H141.176V11.7661ZM158.701 28.9956C156.881 28.9956 155.298 28.3575 154.187 27.1521C153.123 25.994 152.532 24.3869 152.532 22.5198C152.532 20.7472 153.123 19.1401 154.187 17.982C155.298 16.753 156.858 16.0676 158.583 16.0676C160.308 16.0676 161.703 16.6348 162.719 17.7693C163.735 18.9273 164.255 20.4163 164.255 22.2834V23.2524H155.7C155.912 25.1432 157.094 26.2776 158.725 26.2776C160.048 26.2776 161.017 25.6159 161.395 24.4578L164.184 25.4504C163.31 27.6484 161.254 28.9956 158.701 28.9956ZM158.559 18.7146C157.212 18.7146 156.196 19.5182 155.818 21.0072H160.97C160.947 19.6127 160.001 18.7146 158.559 18.7146ZM165.504 28.7356V16.3039H168.813V18.0528C169.38 16.9184 170.633 16.233 172.122 16.233C172.335 16.233 172.548 16.2567 172.925 16.2803V19.5182C172.477 19.4473 172.217 19.4473 171.862 19.4473C170.042 19.4473 168.813 20.6054 168.813 22.4252V28.7356H165.504Z" fill="#F24E1E"/>
<path d="M90.1059 50.8814C87.6975 50.8814 86 49.4325 86 47.3168C86 45.224 87.3992 43.9822 90.3584 43.4532L93.3634 42.8783V42.6943C93.3634 41.5675 92.7667 41.0155 91.5052 41.0155C90.3354 41.0155 89.6929 41.5215 89.418 42.6253L86.3671 42.0504C86.9862 39.8197 88.9821 38.3479 91.6199 38.3479C94.7626 38.3479 96.5055 39.8197 96.5055 42.5564V47.5008C96.5055 48.0527 96.7121 48.2826 97.1939 48.2826C97.2857 48.2826 97.3775 48.2826 97.4922 48.2596V50.6743C97.0563 50.7434 96.6662 50.7664 96.322 50.7664C94.9916 50.7664 94.1201 50.3524 93.6841 49.5475C92.8815 50.3984 91.6429 50.8814 90.1059 50.8814ZM89.1656 47.1328C89.1656 47.9607 89.7617 48.4436 90.7484 48.4436C92.239 48.4436 93.3634 47.5927 93.3634 46.3739V45.132L91.0004 45.615C89.6929 45.8679 89.1656 46.3279 89.1656 47.1328ZM99.303 38.5778H102.514V39.8197C103.317 38.8768 104.464 38.3479 105.817 38.3479C108.295 38.3479 109.877 40.0266 109.877 42.6943V50.6743H106.666V43.6142C106.666 42.1194 106.001 41.2915 104.739 41.2915C103.455 41.2915 102.514 42.2344 102.514 43.6832V50.6743H99.303V38.5778ZM115.732 50.8814C113.323 50.8814 111.626 49.4325 111.626 47.3168C111.626 45.224 113.026 43.9822 115.984 43.4532L118.989 42.8783V42.6943C118.989 41.5675 118.393 41.0155 117.132 41.0155C115.961 41.0155 115.319 41.5215 115.044 42.6253L111.993 42.0504C112.613 39.8197 114.608 38.3479 117.246 38.3479C120.388 38.3479 122.132 39.8197 122.132 42.5564V47.5008C122.132 48.0527 122.338 48.2826 122.82 48.2826C122.912 48.2826 123.003 48.2826 123.118 48.2596V50.6743C122.682 50.7434 122.293 50.7664 121.948 50.7664C120.618 50.7664 119.746 50.3524 119.31 49.5475C118.507 50.3984 117.269 50.8814 115.732 50.8814ZM114.791 47.1328C114.791 47.9607 115.388 48.4436 116.374 48.4436C117.865 48.4436 118.989 47.5927 118.989 46.3739V45.132L116.627 45.615C115.319 45.8679 114.791 46.3279 114.791 47.1328ZM124.929 50.6743V34.1624H128.14V50.6743H124.929ZM133.803 50.1914L129.468 38.5778H132.794L135.524 46.5349L138.185 38.5778H141.419L136.648 51.3643C135.707 53.94 134.4 54.8829 132.106 54.8829C131.624 54.8829 131.395 54.8829 130.844 54.8139V52.2152C131.303 52.2382 131.601 52.2612 131.762 52.2612C132.679 52.2612 133.115 51.9622 133.414 51.1573L133.803 50.1914ZM141.766 38.5778H143.372V35.1282H146.538V38.5778H148.992V41.2685H146.538V46.8568C146.538 47.7077 146.859 48.0297 148.052 48.0297C148.419 48.0297 148.602 48.0297 149.152 47.9607V50.6284C148.533 50.7434 147.845 50.8123 147.088 50.8123C144.45 50.8123 143.372 49.8235 143.372 47.5238V41.2685H141.766V38.5778ZM154.304 34.1624V37.152H151.025V34.1624H154.304ZM151.071 50.6743V38.5778H154.282V50.6743H151.071ZM162.216 41.0385C160.472 41.0385 159.394 42.4184 159.394 44.6261C159.394 46.8568 160.472 48.2137 162.216 48.2137C163.431 48.2137 164.303 47.4317 164.647 46.0519L167.422 47.2937C167.124 48.3746 166.505 49.2485 165.564 49.9155C164.624 50.5824 163.5 50.9273 162.193 50.9273C160.449 50.9273 158.912 50.3064 157.834 49.1106C156.756 47.9837 156.206 46.3969 156.206 44.6261C156.206 42.8553 156.756 41.2685 157.834 40.1417C158.912 38.9688 160.449 38.3479 162.193 38.3479C164.762 38.3479 166.735 39.7737 167.377 41.9124L164.647 43.2003C164.303 41.8204 163.431 41.0385 162.216 41.0385ZM173.529 50.9273C172.359 50.9273 171.28 50.7204 170.271 50.3064C169.239 49.8925 168.482 49.3405 167.955 48.6276L169.95 46.5809C170.776 47.6847 172.221 48.4206 173.598 48.4206C174.859 48.4206 175.616 47.9377 175.616 47.1788C175.616 46.6268 175.318 46.3279 174.469 46.1209C174.354 46.0979 174.24 46.0519 174.079 46.0289C173.919 46.0059 173.506 45.914 172.794 45.776C171.235 45.477 170.547 45.201 169.973 44.8331C169.125 44.2811 168.689 43.4532 168.689 42.2804C168.689 41.1075 169.147 40.1646 170.065 39.4287C170.983 38.7158 172.175 38.3479 173.621 38.3479C175.662 38.3479 177.612 39.1758 178.598 40.4406L176.763 42.4643C175.96 41.4295 174.79 40.8545 173.529 40.8545C172.52 40.8545 171.854 41.2915 171.854 41.9584C171.854 42.4184 172.107 42.6713 172.749 42.8553C173.001 42.9473 173.162 42.9933 174.148 43.1773C175.089 43.3842 175.754 43.5452 176.167 43.6832C176.58 43.8212 176.946 43.9822 177.245 44.1432C178.254 44.7181 178.759 45.615 178.759 46.8338C178.759 48.0527 178.277 49.0186 177.29 49.7775C176.304 50.5364 175.043 50.9273 173.529 50.9273Z" fill="#F24E1E"/>
<rect x="-19.5" y="-18.5321" width="227.759" height="259" rx="4.5" stroke="#9049D8" stroke-dasharray="10 5"/>
<defs>
<linearGradient id="paint0_linear_253_10331" x1="56.8964" y1="27.9463" x2="42.0672" y2="42.7375" gradientUnits="userSpaceOnUse">
<stop stop-color="#FF6B40"/>
<stop offset="1" stop-color="white"/>
</linearGradient>
<clipPath id="clip0_253_10331">
<rect width="70" height="60" fill="white" transform="translate(8 0.967896)"/>
</clipPath>
</defs>
</svg>
